<svg xmlns="http://www.w3.org/2000/svg" viewBox="0 0 32 32" width="32" height="32">
  <defs>
    <linearGradient id="brainGradient" x1="0%" y1="0%" x2="100%" y2="100%">
      <stop offset="0%" style="stop-color:#6366f1;stop-opacity:1" />
      <stop offset="50%" style="stop-color:#8b5cf6;stop-opacity:1" />
      <stop offset="100%" style="stop-color:#a855f7;stop-opacity:1" />
    </linearGradient>
    <filter id="shadow" x="-20%" y="-20%" width="140%" height="140%">
      <feDropShadow dx="1" dy="1" stdDeviation="1" flood-color="rgba(0,0,0,0.3)"/>
    </filter>
  </defs>
  
  <!-- Background circle -->
  <circle cx="16" cy="16" r="15" fill="url(#brainGradient)" filter="url(#shadow)"/>
  
  <!-- Brain icon -->
  <g transform="translate(8, 7)" fill="white">
    <!-- Left hemisphere -->
    <path d="M2 6c0-2.2 1.8-4 4-4s4 1.8 4 4v6c0 1.1-.9 2-2 2H4c-1.1 0-2-.9-2-2V6z" opacity="0.9"/>
    
    <!-- Right hemisphere -->
    <path d="M6 6c0-2.2 1.8-4 4-4s4 1.8 4 4v6c0 1.1-.9 2-2 2H8c-1.1 0-2-.9-2-2V6z" opacity="0.9"/>
    
    <!-- Brain folds/details -->
    <path d="M4 8c1 0 2-.5 2-1s-1-1-2-1" stroke="rgba(255,255,255,0.6)" stroke-width="0.5" fill="none"/>
    <path d="M10 8c1 0 2-.5 2-1s-1-1-2-1" stroke="rgba(255,255,255,0.6)" stroke-width="0.5" fill="none"/>
    <path d="M6 10c1 0 2-.5 2-1s-1-1-2-1" stroke="rgba(255,255,255,0.6)" stroke-width="0.5" fill="none"/>
    
    <!-- Central connection -->
    <ellipse cx="8" cy="9" rx="1" ry="0.5" fill="rgba(255,255,255,0.7)"/>
  </g>
  
  <!-- Quiz elements (small dots representing knowledge) -->
  <circle cx="24" cy="10" r="1.5" fill="rgba(255,255,255,0.8)"/>
  <circle cx="26" cy="14" r="1" fill="rgba(255,255,255,0.6)"/>
  <circle cx="22" cy="18" r="1" fill="rgba(255,255,255,0.6)"/>
</svg>